<svg xmlns="http://www.w3.org/2000/svg" xmlns:xlink="http://www.w3.org/1999/xlink" width="1400" zoomAndPan="magnify" viewBox="0 0 1050 239.999995" height="320" preserveAspectRatio="xMidYMid meet" version="1.0"><defs><g/><clipPath id="5d489270c5"><path d="M 0 0 L 240 0 L 240 232 L 0 232 Z M 0 0 " clip-rule="nonzero"/></clipPath><clipPath id="12ee14d61e"><path d="M 22 29 L 240 29 L 240 240 L 22 240 Z M 22 29 " clip-rule="nonzero"/></clipPath></defs><path fill="#5932ea" d="M 159.347656 103.480469 C 156.554688 108.324219 149.796875 120.039062 145 128.34375 C 144.207031 129.71875 143.25 130.96875 142.125 132.09375 C 141.003906 133.214844 139.753906 134.175781 138.378906 134.96875 C 137.003906 135.765625 135.550781 136.367188 134.019531 136.78125 C 132.484375 137.195312 130.925781 137.402344 129.335938 137.402344 L 149.015625 103.488281 C 149.414062 102.796875 149.617188 102.046875 149.617188 101.246094 C 149.617188 100.445312 149.414062 99.699219 149.015625 99.003906 C 146.472656 94.617188 140.578125 84.429688 134.664062 74.226562 C 130.238281 66.585938 125.804688 58.933594 122.769531 53.691406 C 121.046875 50.71875 116.757812 50.722656 115.039062 53.691406 C 106.980469 67.671875 88.667969 99.375 83.65625 108.054688 C 83.257812 108.746094 82.710938 109.289062 82.019531 109.6875 C 81.328125 110.085938 80.582031 110.285156 79.785156 110.285156 L 79.777344 110.285156 C 76.335938 110.285156 74.1875 106.5625 75.90625 103.582031 L 115.027344 35.652344 C 116.75 32.667969 121.054688 32.664062 122.773438 35.652344 L 159.347656 99.015625 C 159.746094 99.707031 159.949219 100.449219 159.949219 101.246094 C 159.949219 102.046875 159.746094 102.789062 159.347656 103.480469 Z M 159.347656 103.480469 " fill-opacity="1" fill-rule="nonzero"/><g clip-path="url(#5d489270c5)"><path stroke-linecap="butt" transform="matrix(0.111004, 0, 0, 0.111004, 22.894549, 33.301148)" fill="none" stroke-linejoin="miter" d="M 1229.264876 632.224332 C 1204.103863 675.860214 1143.224769 781.395707 1100.011169 856.210132 C 1092.867553 868.597092 1084.245947 879.857965 1074.111161 889.99275 C 1064.011566 900.092346 1052.750693 908.749142 1040.363733 915.892758 C 1027.976773 923.071564 1014.886008 928.49086 1001.091439 932.221024 C 987.261679 935.951188 973.220778 937.81627 958.898356 937.81627 L 1136.186723 632.294712 C 1139.776127 626.066042 1141.606018 619.309518 1141.606018 612.095521 C 1141.606018 604.881525 1139.776127 598.160191 1136.186723 591.89633 C 1113.277885 552.377705 1060.175831 460.60159 1006.897826 368.684715 C 967.027298 299.85263 927.08639 230.914974 899.743583 183.689688 C 884.224692 156.909924 845.585822 156.945115 830.102122 183.689688 C 757.504682 309.635513 592.532894 595.239402 547.383831 673.432088 C 543.794428 679.660759 538.867796 684.5522 532.639126 688.141604 C 526.410456 691.731007 519.689122 693.525708 512.510316 693.525708 L 512.439935 693.525708 C 481.437345 693.525708 462.082719 659.989421 477.566419 633.139277 L 829.996551 21.181216 C 845.515442 -5.704118 884.295073 -5.739309 899.778773 21.181216 L 1229.264876 592.001901 C 1232.854279 598.230571 1234.684171 604.916715 1234.684171 612.095521 C 1234.684171 619.309518 1232.854279 625.995661 1229.264876 632.224332 Z M 1229.264876 632.224332 " stroke="#5932ea" stroke-width="60" stroke-opacity="1" stroke-miterlimit="10"/></g><path fill="#5932ea" d="M 210.304688 200.679688 L 137.132812 200.6875 C 136.332031 200.6875 135.585938 200.488281 134.894531 200.085938 C 134.203125 199.6875 133.660156 199.140625 133.257812 198.449219 L 118.851562 173.480469 C 118.066406 172.117188 117.46875 170.679688 117.0625 169.160156 C 116.65625 167.640625 116.449219 166.09375 116.449219 164.519531 C 116.449219 162.945312 116.65625 161.398438 117.0625 159.878906 C 117.46875 158.359375 118.066406 156.917969 118.851562 155.558594 L 118.894531 155.480469 L 138.476562 189.410156 C 138.878906 190.101562 139.421875 190.648438 140.113281 191.046875 C 140.804688 191.449219 141.550781 191.648438 142.351562 191.648438 L 194.832031 191.636719 C 198.273438 191.636719 200.425781 187.90625 198.699219 184.929688 L 167.257812 130.574219 C 166.859375 129.890625 166.65625 129.152344 166.652344 128.359375 C 166.648438 127.566406 166.84375 126.824219 167.234375 126.136719 C 168.941406 123.125 173.269531 123.109375 174.996094 126.101562 L 214.179688 193.96875 C 215.898438 196.949219 213.75 200.679688 210.304688 200.679688 Z M 210.304688 200.679688 " fill-opacity="1" fill-rule="nonzero"/><g clip-path="url(#12ee14d61e)"><path stroke-linecap="butt" transform="matrix(0.111004, 0, 0, 0.111004, 22.894549, 33.301148)" fill="none" stroke-linejoin="miter" d="M 1688.321398 1507.86277 L 1029.13805 1507.933151 C 1021.924054 1507.933151 1015.20272 1506.138449 1008.97405 1502.513856 C 1002.745379 1498.924452 997.853938 1493.99782 994.229344 1487.76915 L 864.447784 1262.833214 C 857.374548 1250.551824 851.990443 1237.601821 848.33066 1223.912822 C 844.670876 1210.223823 842.805794 1196.288493 842.805794 1182.106831 C 842.805794 1167.92517 844.670876 1153.989839 848.33066 1140.300841 C 851.990443 1126.611842 857.374548 1113.626648 864.447784 1101.380449 L 864.834877 1100.676644 L 1041.243489 1406.338963 C 1044.868082 1412.567633 1049.759524 1417.494265 1055.988194 1421.083668 C 1062.216864 1424.708262 1068.938198 1426.502964 1076.152195 1426.502964 L 1548.932905 1426.397393 C 1579.935496 1426.397393 1599.325312 1392.790725 1583.771231 1365.975772 L 1300.525087 876.303752 C 1296.935684 870.145462 1295.105792 863.494509 1295.070602 856.350892 C 1295.035412 849.207276 1296.794923 842.521133 1300.313946 836.327653 C 1315.692075 809.195987 1354.682848 809.055226 1370.236928 836.010941 L 1723.230104 1447.405959 C 1738.713804 1474.256103 1719.359179 1507.86277 1688.321398 1507.86277 Z M 1688.321398 1507.86277 " stroke="#5932ea" stroke-width="60" stroke-opacity="1" stroke-miterlimit="10"/></g><path stroke-linecap="butt" transform="matrix(0.111004, 0, 0, 0.111004, 22.894549, 33.301148)" fill-opacity="1" fill="#5932ea" fill-rule="nonzero" stroke-linejoin="miter" d="M 748.144081 1507.933151 L 41.348355 1507.933151 C 10.345765 1507.933151 -9.044051 1474.361673 6.439649 1447.476339 L 335.996133 876.514893 C 339.620726 870.286223 344.512168 865.359591 350.776029 861.770188 C 357.004699 858.145594 363.726033 856.350892 370.904839 856.350892 L 629.728965 856.350892 C 644.016197 856.350892 658.092288 858.215975 671.886857 861.910948 C 685.716617 865.605922 698.807382 871.025217 711.194342 878.168834 C 723.581302 885.31245 734.842175 893.934056 744.976961 904.068841 C 755.076556 914.168437 763.733352 925.394119 770.876968 937.78108 L 417.989364 937.78108 C 410.810557 937.78108 404.089224 939.610971 397.825363 943.200375 C 391.596693 946.824968 386.705251 951.7516 383.115848 958.015461 L 147.517273 1366.010962 C 131.998382 1392.861106 151.388198 1426.432583 182.390789 1426.432583 L 747.651418 1426.502964 C 754.865415 1426.502964 761.586748 1428.332855 767.815419 1431.922259 C 774.079279 1435.511662 778.970721 1440.438294 782.595314 1446.666964 L 783.087977 1447.54672 C 798.536487 1474.396864 779.146672 1507.933151 748.144081 1507.933151 Z M 748.144081 1507.933151 " stroke="#5932ea" stroke-width="60" stroke-opacity="1" stroke-miterlimit="10"/><g fill="#5932ea" fill-opacity="1"><g transform="translate(236.137497, 177.825514)"><g><path d="M 108.234375 0 L 84.75 0 L 75.71875 -26.4375 L 34.15625 -26.4375 L 25.125 0 L 1.96875 0 L 41.5625 -108.40625 L 68.65625 -108.40625 Z M 39.25 -43.203125 L 70.625 -43.203125 L 54.859375 -90.5 Z M 39.25 -43.203125 "/></g></g></g><g fill="#5932ea" fill-opacity="1"><g transform="translate(346.34137, 177.825514)"><g><path d="M 65.703125 -82.125 L 89.03125 -82.125 L 57.8125 0 L 31.859375 0 L 0.65625 -82.125 L 24.796875 -82.125 L 45 -17.25 Z M 65.703125 -82.125 "/></g></g></g><g fill="#5932ea" fill-opacity="1"><g transform="translate(436.015459, 177.825514)"><g><path d="M 49.9375 1.640625 C 41.28125 1.640625 33.75 -0.0546875 27.34375 -3.453125 C 20.9375 -6.847656 15.984375 -11.71875 12.484375 -18.0625 C 8.984375 -24.414062 7.234375 -32.082031 7.234375 -41.0625 C 7.234375 -50.039062 8.984375 -57.703125 12.484375 -64.046875 C 15.984375 -70.398438 20.878906 -75.273438 27.171875 -78.671875 C 33.472656 -82.066406 40.675781 -83.765625 48.78125 -83.765625 C 57.101562 -83.765625 64.164062 -82.09375 69.96875 -78.75 C 75.769531 -75.414062 80.203125 -70.875 83.265625 -65.125 C 86.335938 -59.375 87.875 -52.832031 87.875 -45.5 C 87.875 -43.3125 87.816406 -41.226562 87.703125 -39.25 C 87.597656 -37.28125 87.4375 -35.53125 87.21875 -34 L 21.6875 -34 L 21.6875 -49.609375 L 77.359375 -49.609375 L 66.515625 -45.65625 C 66.515625 -52.5625 64.953125 -57.875 61.828125 -61.59375 C 58.710938 -65.3125 54.3125 -67.171875 48.625 -67.171875 C 44.457031 -67.171875 40.867188 -66.1875 37.859375 -64.21875 C 34.847656 -62.25 32.578125 -59.320312 31.046875 -55.4375 C 29.515625 -51.550781 28.75 -46.648438 28.75 -40.734375 C 28.75 -34.929688 29.59375 -30.140625 31.28125 -26.359375 C 32.976562 -22.585938 35.390625 -19.769531 38.515625 -17.90625 C 41.640625 -16.039062 45.390625 -15.109375 49.765625 -15.109375 C 54.585938 -15.109375 58.472656 -16.039062 61.421875 -17.90625 C 64.378906 -19.769531 66.679688 -22.34375 68.328125 -25.625 L 86.234375 -18.71875 C 84.484375 -14.445312 81.828125 -10.78125 78.265625 -7.71875 C 74.703125 -4.65625 70.484375 -2.328125 65.609375 -0.734375 C 60.742188 0.847656 55.519531 1.640625 49.9375 1.640625 Z M 49.9375 1.640625 "/></g></g></g><g fill="#5932ea" fill-opacity="1"><g transform="translate(531.109401, 177.825514)"><g><path d="M 11.828125 0 L 11.828125 -82.125 L 32.03125 -82.125 L 33.34375 -57.484375 L 30.546875 -60.109375 C 31.859375 -65.472656 33.9375 -69.878906 36.78125 -73.328125 C 39.632812 -76.785156 43.113281 -79.390625 47.21875 -81.140625 C 51.320312 -82.890625 55.835938 -83.765625 60.765625 -83.765625 C 66.460938 -83.765625 71.53125 -82.671875 75.96875 -80.484375 C 80.40625 -78.296875 83.910156 -74.984375 86.484375 -70.546875 C 89.054688 -66.109375 90.34375 -60.550781 90.34375 -53.875 L 90.34375 0 L 67.828125 0 L 67.828125 -47.46875 C 67.828125 -54.476562 66.457031 -59.320312 63.71875 -62 C 60.988281 -64.6875 57.429688 -66.03125 53.046875 -66.03125 C 49.984375 -66.03125 47 -65.289062 44.09375 -63.8125 C 41.195312 -62.332031 38.84375 -59.945312 37.03125 -56.65625 C 35.226562 -53.375 34.328125 -49 34.328125 -43.53125 L 34.328125 0 Z M 11.828125 0 "/></g></g></g><g fill="#5932ea" fill-opacity="1"><g transform="translate(632.772893, 177.825514)"><g><path d="M 106.921875 -29.890625 C 104.847656 -22.878906 101.566406 -17.019531 97.078125 -12.3125 C 92.585938 -7.601562 87.273438 -4.097656 81.140625 -1.796875 C 75.003906 0.492188 68.269531 1.640625 60.9375 1.640625 C 50.207031 1.640625 40.925781 -0.601562 33.09375 -5.09375 C 25.269531 -9.582031 19.25 -15.988281 15.03125 -24.3125 C 10.8125 -32.632812 8.703125 -42.597656 8.703125 -54.203125 C 8.703125 -65.804688 10.8125 -75.769531 15.03125 -84.09375 C 19.25 -92.414062 25.269531 -98.820312 33.09375 -103.3125 C 40.925781 -107.800781 50.097656 -110.046875 60.609375 -110.046875 C 68.054688 -110.046875 74.789062 -109.03125 80.8125 -107 C 86.832031 -104.976562 91.945312 -101.859375 96.15625 -97.640625 C 100.375 -93.429688 103.472656 -88.203125 105.453125 -81.953125 L 84.921875 -73.25 C 83.054688 -79.820312 80.207031 -84.503906 76.375 -87.296875 C 72.539062 -90.085938 67.613281 -91.484375 61.59375 -91.484375 C 55.675781 -91.484375 50.5 -90.0625 46.0625 -87.21875 C 41.632812 -84.375 38.210938 -80.1875 35.796875 -74.65625 C 33.390625 -69.125 32.1875 -62.304688 32.1875 -54.203125 C 32.1875 -46.210938 33.304688 -39.421875 35.546875 -33.828125 C 37.796875 -28.242188 41.109375 -24.03125 45.484375 -21.1875 C 49.867188 -18.34375 55.238281 -16.921875 61.59375 -16.921875 C 67.507812 -16.921875 72.628906 -18.503906 76.953125 -21.671875 C 81.273438 -24.847656 84.3125 -29.671875 86.0625 -36.140625 Z M 106.921875 -29.890625 "/></g></g></g><g fill="#5932ea" fill-opacity="1"><g transform="translate(744.947645, 177.825514)"><g><path d="M 61.921875 -108.40625 C 74.179688 -108.40625 83.816406 -105.445312 90.828125 -99.53125 C 97.835938 -93.625 101.34375 -85.6875 101.34375 -75.71875 C 101.34375 -65.09375 97.835938 -56.960938 90.828125 -51.328125 C 83.816406 -45.691406 74.238281 -42.875 62.09375 -42.875 L 59.78125 -41.5625 L 36.46875 -41.5625 L 36.46875 0 L 14.125 0 L 14.125 -108.40625 Z M 59.296875 -58.796875 C 65.648438 -58.796875 70.382812 -60.082031 73.5 -62.65625 C 76.625 -65.226562 78.1875 -69.195312 78.1875 -74.5625 C 78.1875 -79.9375 76.625 -83.910156 73.5 -86.484375 C 70.382812 -89.054688 65.648438 -90.34375 59.296875 -90.34375 L 36.46875 -90.34375 L 36.46875 -58.796875 Z M 72.59375 -54.03125 L 107.75 0 L 82.296875 0 L 53.21875 -47.46875 Z M 72.59375 -54.03125 "/></g></g></g><g fill="#5932ea" fill-opacity="1"><g transform="translate(856.62966, 177.825514)"><g><path d="M 132.0625 -108.40625 L 132.0625 0 L 111.6875 0 L 111.6875 -56.5 L 112.671875 -88.203125 L 112.34375 -88.203125 L 82.296875 0 L 63.734375 0 L 33.828125 -88.203125 L 33.5 -88.203125 L 34.65625 -56.5 L 34.65625 0 L 14.125 0 L 14.125 -108.40625 L 46.96875 -108.40625 L 66.515625 -49.28125 L 73.421875 -24.796875 L 73.75 -24.796875 L 80.8125 -49.109375 L 100.1875 -108.40625 Z M 132.0625 -108.40625 "/></g></g></g></svg>